<svg xmlns="http://www.w3.org/2000/svg" enable-background="new 0 0 64 64" viewBox="0 0 64 64"><path fill="#3a3c48" d="M61.84,11.71H2.16C0.97,11.71,0,10.75,0,9.56V9.37c0-1.19,0.97-2.16,2.16-2.16h59.69
			c1.19,0,2.16,0.97,2.16,2.16v0.19C64,10.75,63.03,11.71,61.84,11.71z"/><path fill="#545564" d="M18.94 9.46c0-1.76-1.42-3.18-3.18-3.18s-3.18 1.42-3.18 3.18c0 1.38.88 2.54 2.1 2.98v10.26h2.15V12.44C18.06 12 18.94 10.84 18.94 9.46zM51.43 9.46c0-1.76-1.42-3.18-3.18-3.18s-3.18 1.42-3.18 3.18c0 1.38.88 2.54 2.1 2.98v10.26h2.15V12.44C50.55 12 51.43 10.84 51.43 9.46z"/><path fill="#80c75e" d="M2.96,55.72v-37.1c0-1.1,0.9-2,2-2h54.07c1.1,0,2,0.9,2,2v37.1c0,1.1-0.9,2-2,2H4.96
		C3.86,57.72,2.96,56.82,2.96,55.72z"/><path fill="#fff" d="M56.47,55.15H7.53c-1.1,0-2-0.9-2-2V21.18c0-1.1,0.9-2,2-2h48.94c1.1,0,2,0.9,2,2v31.97
		C58.47,54.26,57.58,55.15,56.47,55.15z"/><path fill="#3a3c48" d="M18.18 37.29c0 .06-.01.11-.03.15-.02.04-.07.07-.15.1-.08.03-.2.04-.35.06s-.36.02-.63.02c-.22 0-.4-.01-.53-.02-.13-.01-.24-.03-.31-.06-.08-.03-.13-.07-.16-.11-.03-.04-.06-.1-.08-.16l-.92-2.29c-.11-.26-.22-.49-.32-.69-.11-.2-.22-.37-.35-.5-.13-.13-.28-.24-.45-.3-.17-.07-.36-.1-.59-.1h-.65v3.9c0 .05-.02.1-.05.14-.03.04-.09.08-.17.1-.08.03-.18.05-.32.06s-.3.02-.51.02c-.2 0-.37-.01-.5-.02s-.24-.04-.32-.06c-.08-.03-.13-.06-.17-.1-.03-.04-.05-.09-.05-.14v-9.3c0-.23.06-.4.18-.5.12-.1.27-.15.44-.15h2.65c.27 0 .49.01.66.02.17.01.33.02.47.04.41.06.78.16 1.11.3.33.14.61.33.84.56.23.23.4.5.53.82.12.31.18.67.18 1.08 0 .34-.04.66-.13.94-.09.28-.22.53-.38.76-.17.22-.38.41-.63.58-.25.16-.53.3-.85.4.15.07.3.16.43.27.13.11.26.23.38.38.12.15.23.32.34.51.11.19.21.41.31.65l.86 2.02c.08.2.13.35.16.44C18.17 37.17 18.18 37.24 18.18 37.29zM15.5 30.34c0-.34-.08-.62-.23-.85s-.4-.4-.75-.49c-.11-.03-.23-.05-.36-.06-.13-.02-.32-.02-.56-.02h-.93v2.9h1.06c.3 0 .55-.04.78-.11.22-.07.41-.17.55-.3.15-.13.26-.28.33-.46C15.46 30.76 15.5 30.56 15.5 30.34zM28.77 32.32c0 .85-.11 1.61-.32 2.28-.21.67-.53 1.24-.94 1.71-.42.47-.93.82-1.55 1.07-.61.25-1.33.37-2.13.37-.8 0-1.49-.1-2.09-.31-.59-.21-1.09-.53-1.48-.95-.4-.43-.69-.97-.89-1.63-.2-.66-.3-1.44-.3-2.34 0-.83.11-1.57.32-2.24.21-.66.53-1.23.94-1.69.42-.46.93-.82 1.55-1.07.61-.25 1.33-.37 2.14-.37.78 0 1.46.1 2.05.31.59.21 1.09.52 1.49.95.4.43.7.97.9 1.62C28.67 30.66 28.77 31.43 28.77 32.32zM26.58 32.43c0-.54-.04-1.03-.13-1.47-.08-.44-.23-.82-.43-1.13-.2-.31-.47-.56-.81-.73s-.76-.26-1.27-.26c-.51 0-.94.1-1.28.29s-.62.45-.83.77-.36.7-.45 1.13c-.09.43-.13.89-.13 1.37 0 .56.04 1.06.13 1.51s.23.83.43 1.14c.2.32.47.56.81.72.34.17.76.25 1.27.25.51 0 .94-.1 1.28-.28.34-.19.62-.45.83-.78.21-.33.36-.71.45-1.14C26.54 33.38 26.58 32.92 26.58 32.43zM39.73 32.32c0 .85-.11 1.61-.32 2.28-.21.67-.53 1.24-.94 1.71-.42.47-.93.82-1.55 1.07-.61.25-1.33.37-2.13.37-.8 0-1.49-.1-2.09-.31-.59-.21-1.09-.53-1.48-.95-.4-.43-.69-.97-.89-1.63-.2-.66-.3-1.44-.3-2.34 0-.83.11-1.57.32-2.24.21-.66.52-1.23.94-1.69.42-.46.93-.82 1.55-1.07.61-.25 1.33-.37 2.14-.37.78 0 1.46.1 2.05.31.59.21 1.09.52 1.49.95.4.43.7.97.9 1.62C39.63 30.66 39.73 31.43 39.73 32.32zM37.54 32.43c0-.54-.04-1.03-.13-1.47-.08-.44-.23-.82-.43-1.13-.2-.31-.47-.56-.81-.73s-.76-.26-1.27-.26c-.51 0-.94.1-1.28.29-.34.19-.62.45-.83.77-.21.32-.36.7-.45 1.13-.09.43-.13.89-.13 1.37 0 .56.04 1.06.13 1.51s.23.83.43 1.14c.2.32.47.56.81.72.34.17.76.25 1.27.25.51 0 .94-.1 1.28-.28.34-.19.62-.45.83-.78.21-.33.36-.71.45-1.14C37.5 33.38 37.54 32.92 37.54 32.43zM53.41 37.28c0 .05-.01.1-.04.14-.03.04-.08.08-.16.1-.08.03-.18.05-.3.06-.13.02-.29.02-.48.02-.19 0-.35-.01-.47-.02-.13-.02-.23-.04-.3-.06-.07-.03-.13-.06-.16-.1-.03-.04-.05-.09-.05-.14v-8.33h-.02l-2.97 8.33c-.02.07-.06.13-.1.17-.05.04-.11.08-.19.11-.08.03-.19.04-.31.05-.13.01-.28.01-.46.01s-.33-.01-.46-.02c-.13-.01-.23-.03-.31-.06-.08-.03-.15-.06-.19-.11-.05-.04-.08-.09-.1-.15l-2.87-8.33h-.02v8.33c0 .05-.01.1-.04.14-.03.04-.08.08-.16.1-.08.03-.18.05-.3.06s-.28.02-.48.02c-.19 0-.35-.01-.47-.02-.13-.02-.23-.04-.3-.06-.08-.03-.13-.06-.16-.1-.03-.04-.04-.09-.04-.14v-9.13c0-.27.07-.47.21-.62.14-.14.33-.21.57-.21h1.36c.24 0 .45.02.63.06.17.04.32.11.45.2.13.09.23.21.32.36.08.15.16.34.22.56l2.22 6.1h.03l2.3-6.09c.07-.22.14-.41.23-.56.08-.15.18-.28.28-.37.11-.09.24-.16.38-.2.15-.04.32-.06.51-.06h1.4c.14 0 .27.02.37.06.1.04.19.09.25.16.07.07.12.16.15.26.03.1.05.22.05.35V37.28zM16.16 46.71c.04.11.06.2.07.27.01.07 0 .12-.04.15-.03.03-.1.05-.19.06-.09.01-.21.01-.36.01-.16 0-.29 0-.38-.01-.09 0-.16-.01-.21-.03-.05-.01-.08-.03-.1-.06-.02-.03-.04-.06-.05-.1l-.41-1.23H12.2l-.39 1.2c-.01.04-.03.08-.05.11-.02.03-.05.05-.1.07-.04.02-.11.03-.19.04-.08.01-.19.01-.33.01-.15 0-.26 0-.34-.01-.08-.01-.14-.03-.17-.07-.03-.04-.04-.09-.03-.16.01-.07.03-.15.07-.26l1.89-5.45c.02-.05.04-.1.07-.13.03-.03.07-.06.12-.08.06-.02.13-.03.23-.03.1 0 .23-.01.39-.01.19 0 .33 0 .45.01.11 0 .2.01.26.03.06.02.11.04.13.08.03.04.05.08.07.14L16.16 46.71zM13.34 42.2L13.34 42.2l-.87 2.61h1.74L13.34 42.2zM19.58 46.95c-.01.05-.04.1-.06.13-.03.03-.07.06-.12.08-.06.02-.13.03-.23.03-.1 0-.23.01-.38.01-.13 0-.23 0-.32 0-.09 0-.17 0-.23-.01-.06-.01-.11-.02-.15-.03-.04-.01-.07-.03-.1-.05-.03-.02-.05-.04-.06-.07-.01-.03-.03-.06-.04-.1l-1.83-5.44c-.04-.11-.06-.2-.07-.27-.01-.07.01-.12.05-.15.04-.03.11-.05.2-.06.1-.01.23-.01.4-.01.15 0 .26 0 .34.01.08.01.15.02.19.03.04.01.08.04.09.07.02.03.03.07.05.12l1.49 4.73h.01l1.46-4.71c.01-.05.03-.1.05-.13.02-.03.05-.06.1-.08.05-.02.11-.03.2-.04.09-.01.2-.01.35-.01.14 0 .26 0 .34.01.08.01.13.03.17.07.03.04.04.09.03.15-.01.07-.04.15-.07.27L19.58 46.95zM26.78 46.71c.04.11.06.2.07.27.01.07 0 .12-.04.15-.03.03-.1.05-.19.06-.09.01-.21.01-.36.01-.16 0-.29 0-.38-.01-.09 0-.16-.01-.21-.03-.05-.01-.08-.03-.1-.06-.02-.03-.04-.06-.05-.1l-.41-1.23h-2.31l-.39 1.2c-.01.04-.03.08-.05.11-.02.03-.05.05-.1.07-.04.02-.11.03-.19.04C22 47.2 21.89 47.2 21.75 47.2c-.15 0-.26 0-.34-.01-.08-.01-.14-.03-.17-.07-.03-.04-.04-.09-.03-.16.01-.07.03-.15.07-.26l1.89-5.45c.02-.05.04-.1.07-.13.03-.03.07-.06.12-.08.06-.02.13-.03.23-.03.1 0 .23-.01.39-.01.19 0 .33 0 .45.01.11 0 .2.01.26.03.06.02.11.04.13.08.03.04.05.08.07.14L26.78 46.71zM23.96 42.2L23.96 42.2l-.87 2.61h1.74L23.96 42.2zM28.89 47c0 .03-.01.06-.03.09-.02.03-.06.05-.1.06-.05.02-.11.03-.19.04-.08.01-.18.01-.3.01-.12 0-.22 0-.3-.01-.08-.01-.15-.02-.19-.04-.05-.01-.08-.04-.1-.06-.02-.03-.03-.05-.03-.09v-5.8c0-.03.01-.06.03-.09.02-.03.06-.04.1-.06.05-.02.11-.03.19-.04.08-.01.18-.01.3-.01.12 0 .23 0 .3.01.08.01.14.02.19.04.05.02.08.04.1.06.02.03.03.05.03.09V47zM33.6 46.65c0 .09 0 .17-.01.24-.01.07-.02.12-.04.16-.01.04-.04.07-.06.09-.02.02-.05.03-.08.03H30.6c-.1 0-.19-.03-.26-.09-.07-.06-.11-.16-.11-.3V41.2c0-.03.01-.06.03-.09.02-.03.06-.04.1-.06.05-.02.11-.03.19-.04.08-.01.18-.01.3-.01.12 0 .23 0 .3.01.08.01.14.02.19.04.05.02.08.04.1.06.02.03.03.05.03.09v4.94h1.93c.03 0 .06.01.08.03.02.02.04.04.06.09.02.04.03.09.04.16C33.6 46.47 33.6 46.55 33.6 46.65zM39.36 46.71c.04.11.06.2.07.27.01.07 0 .12-.04.15-.03.03-.1.05-.19.06-.09.01-.21.01-.36.01-.16 0-.29 0-.38-.01-.09 0-.16-.01-.21-.03-.05-.01-.08-.03-.1-.06-.02-.03-.04-.06-.05-.1l-.41-1.23H35.4l-.39 1.2c-.01.04-.03.08-.05.11-.02.03-.05.05-.1.07-.04.02-.11.03-.19.04-.08.01-.19.01-.33.01-.14 0-.26 0-.34-.01-.08-.01-.14-.03-.17-.07-.03-.04-.04-.09-.03-.16.01-.07.03-.15.07-.26l1.89-5.45c.02-.05.04-.1.07-.13.03-.03.07-.06.12-.08.06-.02.13-.03.23-.03.1 0 .23-.01.39-.01.19 0 .33 0 .45.01.11 0 .2.01.26.03.06.02.11.04.13.08.03.04.05.08.07.14L39.36 46.71zM36.55 42.2L36.55 42.2l-.87 2.61h1.74L36.55 42.2zM44.67 45.33c0 .22-.03.42-.09.59-.06.18-.14.33-.25.47-.11.14-.23.25-.38.35-.15.1-.31.18-.49.24-.18.06-.37.11-.57.14-.2.03-.42.04-.67.04h-1.63c-.1 0-.19-.03-.26-.09-.07-.06-.11-.16-.11-.3v-5.35c0-.14.04-.24.11-.3.07-.06.16-.09.26-.09h1.54c.38 0 .69.03.96.1.26.06.48.16.66.29.18.13.32.29.41.49.09.2.14.43.14.69 0 .15-.02.29-.06.42-.04.13-.09.25-.17.36-.07.11-.16.2-.27.28-.1.08-.23.15-.36.2.17.03.33.09.48.17.15.08.28.18.38.3.11.13.19.27.26.44C44.63 44.93 44.67 45.12 44.67 45.33zM43.05 42.75c0-.12-.02-.23-.06-.33-.04-.1-.09-.18-.17-.25-.08-.06-.17-.11-.29-.15-.12-.03-.27-.05-.46-.05h-.63v1.59h.7c.18 0 .32-.02.43-.06.11-.04.2-.1.27-.18.07-.07.12-.16.16-.26C43.04 42.96 43.05 42.86 43.05 42.75zM43.37 45.37c0-.14-.02-.27-.07-.38-.05-.11-.12-.21-.21-.28-.09-.08-.21-.13-.35-.18-.14-.04-.33-.06-.56-.06h-.74v1.75h.9c.17 0 .32-.02.44-.05.12-.04.22-.09.31-.16.09-.07.16-.16.2-.27C43.35 45.63 43.37 45.51 43.37 45.37zM49.04 46.65c0 .09 0 .17-.01.24-.01.07-.02.12-.04.16-.01.04-.04.07-.06.09-.02.02-.05.03-.08.03h-2.81c-.1 0-.19-.03-.26-.09-.07-.06-.11-.16-.11-.3V41.2c0-.03.01-.06.03-.09.02-.03.06-.04.1-.06.05-.02.11-.03.19-.04.08-.01.18-.01.3-.01.12 0 .23 0 .3.01.08.01.14.02.19.04.05.02.08.04.1.06.02.03.03.05.03.09v4.94h1.93c.03 0 .06.01.08.03.02.02.04.04.06.09.02.04.03.09.04.16C49.04 46.47 49.04 46.55 49.04 46.65zM53.41 46.68c0 .09 0 .17-.01.23-.01.06-.02.11-.04.15-.02.04-.04.07-.06.08-.02.02-.05.03-.08.03h-3.08c-.1 0-.19-.03-.26-.09-.07-.06-.11-.16-.11-.3v-5.35c0-.14.04-.24.11-.3.07-.06.16-.09.26-.09h3.06c.03 0 .05.01.08.02.02.02.04.04.06.08.02.04.03.09.04.15.01.06.01.14.01.23 0 .09 0 .16-.01.23-.01.06-.02.11-.04.15-.01.04-.03.07-.06.08-.02.02-.05.03-.08.03h-2.19v1.5h1.85c.03 0 .05.01.08.03.02.02.04.04.06.08.02.04.03.09.04.15.01.06.01.14.01.22 0 .09 0 .17-.01.23-.01.06-.02.11-.04.15-.02.04-.04.06-.06.08-.02.02-.05.02-.08.02h-1.85v1.73h2.21c.03 0 .05.01.08.03.02.02.04.04.06.08.02.04.03.09.04.15C53.41 46.51 53.41 46.59 53.41 46.68z"/></svg>